{
    "asset" : {
        "generator" : "Khronos glTF Blender I/O v1.0.5",
        "version" : "2.0"
    },
    "scene" : 0,
    "scenes" : [
        {
            "name" : "Scene",
            "nodes" : [
                0,
                1,
                2,
                3,
                4,
                5,
                6,
                7,
                8,
                9
            ]
        }
    ],
    "nodes" : [
        {
            "name" : "Light",
            "rotation" : [
                0.16907575726509094,
                0.7558803558349609,
                -0.27217137813568115,
                0.570947527885437
            ],
            "translation" : [
                4.076245307922363,
                5.903861999511719,
                -1.0054539442062378
            ]
        },
        {
            "name" : "Camera",
            "rotation" : [
                0.483536034822464,
                0.33687159419059753,
                -0.20870360732078552,
                0.7804827094078064
            ],
            "translation" : [
                7.358891487121582,
                4.958309173583984,
                6.925790786743164
            ]
        },
        {
            "mesh" : 0,
            "name" : "can",
            "rotation" : [
                1,
                0,
                0,
                -1.3435885648505064e-07
            ],
            "scale" : [
                0.41586971282958984,
                0.41586974263191223,
                0.41586974263191223
            ]
        },
        {
            "mesh" : 1,
            "name" : "cap",
            "rotation" : [
                1,
                0,
                0,
                -1.3435885648505064e-07
            ],
            "scale" : [
                0.41586971282958984,
                0.41586974263191223,
                0.41586974263191223
            ]
        },
        {
            "mesh" : 2,
            "name" : "hole",
            "rotation" : [
                1,
                0,
                0,
                -1.3435885648505064e-07
            ],
            "scale" : [
                0.41586971282958984,
                0.41586974263191223,
                0.41586974263191223
            ]
        },
        {
            "mesh" : 3,
            "name" : "nozle",
            "rotation" : [
                1,
                0,
                0,
                -1.3435885648505064e-07
            ],
            "scale" : [
                0.41586971282958984,
                0.41586974263191223,
                0.41586974263191223
            ]
        },
        {
            "mesh" : 4,
            "name" : "tube",
            "rotation" : [
                1,
                0,
                0,
                -1.3435885648505064e-07
            ],
            "scale" : [
                0.41586971282958984,
                0.41586974263191223,
                0.41586974263191223
            ]
        },
        {
            "mesh" : 5,
            "name" : "rings",
            "rotation" : [
                1,
                0,
                0,
                -1.3435885648505064e-07
            ],
            "scale" : [
                0.41586971282958984,
                0.41586974263191223,
                0.41586974263191223
            ]
        },
        {
            "mesh" : 6,
            "name" : "cantop",
            "rotation" : [
                1,
                0,
                0,
                -1.3435885648505064e-07
            ],
            "scale" : [
                0.41586971282958984,
                0.41586974263191223,
                0.41586974263191223
            ]
        },
        {
            "name" : "Point",
            "rotation" : [
                0.7071068286895752,
                0,
                0,
                0.7071067094802856
            ],
            "translation" : [
                -0.28965961933135986,
                2.5988214015960693,
                0.9470169544219971
            ]
        }
    ],
    "materials" : [
        {
            "doubleSided" : true,
            "name" : "default",
            "pbrMetallicRoughness" : {
                "baseColorFactor" : [
                    0,
                    0.031063532456755638,
                    0.0012151456903666258,
                    1
                ],
                "metallicFactor" : 1,
                "roughnessFactor" : 1
            }
        },
        {
            "doubleSided" : true,
            "name" : "Material.002",
            "pbrMetallicRoughness" : {
                "baseColorFactor" : [
                    0,
                    0,
                    0,
                    1
                ],
                "metallicFactor" : 0,
                "roughnessFactor" : 0.5
            }
        },
        {
            "doubleSided" : true,
            "name" : "Material.003",
            "pbrMetallicRoughness" : {
                "baseColorFactor" : [
                    0.012216928415000439,
                    0.012216928415000439,
                    0.012216928415000439,
                    1
                ],
                "metallicFactor" : 0,
                "roughnessFactor" : 0.5
            }
        },
        {
            "doubleSided" : true,
            "name" : "Material.005",
            "pbrMetallicRoughness" : {
                "baseColorFactor" : [
                    0.19882707297801971,
                    0.24619480967521667,
                    0.202181875705719,
                    1
                ],
                "metallicFactor" : 0,
                "roughnessFactor" : 0.5
            }
        },
        {
            "doubleSided" : true,
            "name" : "Material.004",
            "pbrMetallicRoughness" : {
                "baseColorFactor" : [
                    0.023650724440813065,
                    0.023650724440813065,
                    0.023650724440813065,
                    1
                ],
                "metallicFactor" : 1,
                "roughnessFactor" : 0.5
            }
        },
        {
            "doubleSided" : true,
            "name" : "Material.001",
            "pbrMetallicRoughness" : {
                "baseColorFactor" : [
                    0.19598843157291412,
                    0.19598843157291412,
                    0.19598843157291412,
                    1
                ],
                "metallicFactor" : 1,
                "roughnessFactor" : 0.5
            }
        }
    ],
    "meshes" : [
        {
            "name" : "can",
            "primitives" : [
                {
                    "attributes" : {
                        "POSITION" : 0,
                        "NORMAL" : 1
                    },
                    "indices" : 2,
                    "material" : 0
                }
            ]
        },
        {
            "name" : "cap",
            "primitives" : [
                {
                    "attributes" : {
                        "POSITION" : 3,
                        "NORMAL" : 4
                    },
                    "indices" : 5,
                    "material" : 0
                }
            ]
        },
        {
            "name" : "hole",
            "primitives" : [
                {
                    "attributes" : {
                        "POSITION" : 6,
                        "NORMAL" : 7
                    },
                    "indices" : 8,
                    "material" : 1
                }
            ]
        },
        {
            "name" : "nozle",
            "primitives" : [
                {
                    "attributes" : {
                        "POSITION" : 9,
                        "NORMAL" : 10
                    },
                    "indices" : 11,
                    "material" : 2
                }
            ]
        },
        {
            "name" : "tube",
            "primitives" : [
                {
                    "attributes" : {
                        "POSITION" : 12,
                        "NORMAL" : 13
                    },
                    "indices" : 14,
                    "material" : 3
                }
            ]
        },
        {
            "name" : "rings",
            "primitives" : [
                {
                    "attributes" : {
                        "POSITION" : 15,
                        "NORMAL" : 16
                    },
                    "indices" : 17,
                    "material" : 4
                }
            ]
        },
        {
            "name" : "cantop",
            "primitives" : [
                {
                    "attributes" : {
                        "POSITION" : 18,
                        "NORMAL" : 19
                    },
                    "indices" : 20,
                    "material" : 5
                }
            ]
        }
    ],
    "accessors" : [
        {
            "bufferView" : 0,
            "componentType" : 5126,
            "count" : 480,
            "max" : [
                1.0777801275253296,
                -0.09216078370809555,
                1.0777801275253296
            ],
            "min" : [
                -1.0777801275253296,
                -4.064765930175781,
                -1.0777801275253296
            ],
            "type" : "VEC3"
        },
        {
            "bufferView" : 1,
            "componentType" : 5126,
            "count" : 480,
            "type" : "VEC3"
        },
        {
            "bufferView" : 2,
            "componentType" : 5123,
            "count" : 2868,
            "type" : "SCALAR"
        },
        {
            "bufferView" : 3,
            "componentType" : 5126,
            "count" : 416,
            "max" : [
                3.433969259262085,
                0,
                1.7005149126052856
            ],
            "min" : [
                0.911171019077301,
                -2.1839466094970703,
                -0.5045871734619141
            ],
            "type" : "VEC3"
        },
        {
            "bufferView" : 4,
            "componentType" : 5126,
            "count" : 416,
            "type" : "VEC3"
        },
        {
            "bufferView" : 5,
            "componentType" : 5123,
            "count" : 2484,
            "type" : "SCALAR"
        },
        {
            "bufferView" : 6,
            "componentType" : 5126,
            "count" : 26,
            "max" : [
                0.09974119067192078,
                -4.998737335205078,
                -0.08791825920343399
            ],
            "min" : [
                -0.07540390640497208,
                -5.171347141265869,
                -0.19913050532341003
            ],
            "type" : "VEC3"
        },
        {
            "bufferView" : 7,
            "componentType" : 5126,
            "count" : 26,
            "type" : "VEC3"
        },
        {
            "bufferView" : 8,
            "componentType" : 5123,
            "count" : 144,
            "type" : "SCALAR"
        },
        {
            "bufferView" : 9,
            "componentType" : 5126,
            "count" : 185,
            "max" : [
                0.2286434918642044,
                -4.812160491943359,
                0.2324361652135849
            ],
            "min" : [
                -0.22929523885250092,
                -5.270423889160156,
                -0.22550255060195923
            ],
            "type" : "VEC3"
        },
        {
            "bufferView" : 10,
            "componentType" : 5126,
            "count" : 185,
            "type" : "VEC3"
        },
        {
            "bufferView" : 11,
            "componentType" : 5123,
            "count" : 1098,
            "type" : "SCALAR"
        },
        {
            "bufferView" : 12,
            "componentType" : 5126,
            "count" : 64,
            "max" : [
                0.056805603206157684,
                -4.708341121673584,
                0.056805603206157684
            ],
            "min" : [
                -0.056805603206157684,
                -4.912971496582031,
                -0.056805603206157684
            ],
            "type" : "VEC3"
        },
        {
            "bufferView" : 13,
            "componentType" : 5126,
            "count" : 64,
            "type" : "VEC3"
        },
        {
            "bufferView" : 14,
            "componentType" : 5123,
            "count" : 372,
            "type" : "SCALAR"
        },
        {
            "bufferView" : 15,
            "componentType" : 5126,
            "count" : 896,
            "max" : [
                1.0871646404266357,
                -0.01627887412905693,
                1.0871646404266357
            ],
            "min" : [
                -1.0871646404266357,
                -4.234558582305908,
                -1.0871646404266357
            ],
            "type" : "VEC3"
        },
        {
            "bufferView" : 16,
            "componentType" : 5126,
            "count" : 896,
            "type" : "VEC3"
        },
        {
            "bufferView" : 17,
            "componentType" : 5123,
            "count" : 5376,
            "type" : "SCALAR"
        },
        {
            "bufferView" : 18,
            "componentType" : 5126,
            "count" : 1408,
            "max" : [
                1.06794273853302,
                -4.064765930175781,
                1.06794273853302
            ],
            "min" : [
                -1.06794273853302,
                -4.715199947357178,
                -1.06794273853302
            ],
            "type" : "VEC3"
        },
        {
            "bufferView" : 19,
            "componentType" : 5126,
            "count" : 1408,
            "type" : "VEC3"
        },
        {
            "bufferView" : 20,
            "componentType" : 5123,
            "count" : 8436,
            "type" : "SCALAR"
        }
    ],
    "bufferViews" : [
        {
            "buffer" : 0,
            "byteLength" : 5760,
            "byteOffset" : 0
        },
        {
            "buffer" : 0,
            "byteLength" : 5760,
            "byteOffset" : 5760
        },
        {
            "buffer" : 0,
            "byteLength" : 5736,
            "byteOffset" : 11520
        },
        {
            "buffer" : 0,
            "byteLength" : 4992,
            "byteOffset" : 17256
        },
        {
            "buffer" : 0,
            "byteLength" : 4992,
            "byteOffset" : 22248
        },
        {
            "buffer" : 0,
            "byteLength" : 4968,
            "byteOffset" : 27240
        },
        {
            "buffer" : 0,
            "byteLength" : 312,
            "byteOffset" : 32208
        },
        {
            "buffer" : 0,
            "byteLength" : 312,
            "byteOffset" : 32520
        },
        {
            "buffer" : 0,
            "byteLength" : 288,
            "byteOffset" : 32832
        },
        {
            "buffer" : 0,
            "byteLength" : 2220,
            "byteOffset" : 33120
        },
        {
            "buffer" : 0,
            "byteLength" : 2220,
            "byteOffset" : 35340
        },
        {
            "buffer" : 0,
            "byteLength" : 2196,
            "byteOffset" : 37560
        },
        {
            "buffer" : 0,
            "byteLength" : 768,
            "byteOffset" : 39756
        },
        {
            "buffer" : 0,
            "byteLength" : 768,
            "byteOffset" : 40524
        },
        {
            "buffer" : 0,
            "byteLength" : 744,
            "byteOffset" : 41292
        },
        {
            "buffer" : 0,
            "byteLength" : 10752,
            "byteOffset" : 42036
        },
        {
            "buffer" : 0,
            "byteLength" : 10752,
            "byteOffset" : 52788
        },
        {
            "buffer" : 0,
            "byteLength" : 10752,
            "byteOffset" : 63540
        },
        {
            "buffer" : 0,
            "byteLength" : 16896,
            "byteOffset" : 74292
        },
        {
            "buffer" : 0,
            "byteLength" : 16896,
            "byteOffset" : 91188
        },
        {
            "buffer" : 0,
            "byteLength" : 16872,
            "byteOffset" : 108084
        }
    ],
    "buffers" : [
        {
            "byteLength" : 124956,
            "uri" : "data:application/octet-stream;base64,"
        }
    ]
}
