{
    "asset" : {
        "generator" : "Khronos glTF Blender I/O v0.9.36",
        "version" : "2.0"
    },
    "scene" : 0,
    "scenes" : [
        {
            "name" : "Scene",
            "nodes" : [
                0,
                3,
                4
            ]
        }
    ],
    "nodes" : [
        {
            "name" : "Yup2Zup",
            "rotation" : [
                0.7071067690849304,
                0,
                0,
                0.7071067690849304
            ]
        },
        {
            "name" : "Waterbottle.obj.cleaner.materialmerger.gles"
        },
        {
            "children" : [
                1
            ],
            "name" : "RootNode (model correction matrix)"
        },
        {
            "children" : [
                2
            ],
            "name" : "RootNode (gltf orientation matrix)",
            "rotation" : [
                -0.7071068286895752,
                0,
                0,
                0.7071068286895752
            ]
        },
        {
            "mesh" : 0,
            "name" : "Bottle",
            "rotation" : [
                0.7071068286895752,
                0,
                0,
                0.7071067094802856
            ]
        }
    ],
    "materials" : [
        {
            "alphaMode" : "BLEND",
            "doubleSided" : true,
            "name" : "Vetro",
            "pbrMetallicRoughness" : {
                "baseColorFactor" : [
                    0.4845164716243744,
                    0.5952929258346558,
                    0.8000000715255737,
                    0.45714282989501953
                ],
                "metallicFactor" : 0,
                "roughnessFactor" : 0.5
            }
        },
        {
            "doubleSided" : true,
            "name" : "Tappo_A",
            "pbrMetallicRoughness" : {
                "baseColorFactor" : [
                    0,
                    0.0013150634476915002,
                    0.17335502803325653,
                    1
                ],
                "metallicFactor" : 0,
                "roughnessFactor" : 0.8945907354354858
            }
        }
    ],
    "meshes" : [
        {
            "name" : "Bottle",
            "primitives" : [
                {
                    "attributes" : {
                        "POSITION" : 0,
                        "NORMAL" : 1,
                        "TEXCOORD_0" : 2
                    },
                    "indices" : 3,
                    "material" : 0
                },
                {
                    "attributes" : {
                        "POSITION" : 4,
                        "NORMAL" : 5,
                        "TEXCOORD_0" : 6
                    },
                    "indices" : 7,
                    "material" : 1
                }
            ]
        }
    ],
    "accessors" : [
        {
            "bufferView" : 0,
            "componentType" : 5126,
            "count" : 44749,
            "max" : [
                0.6882860064506531,
                0.6882359981536865,
                -1.9999999949504854e-06
            ],
            "min" : [
                -0.6882860064506531,
                -0.6886370182037354,
                -2.7479090690612793
            ],
            "type" : "VEC3"
        },
        {
            "bufferView" : 1,
            "componentType" : 5126,
            "count" : 44749,
            "type" : "VEC3"
        },
        {
            "bufferView" : 2,
            "componentType" : 5126,
            "count" : 44749,
            "type" : "VEC2"
        },
        {
            "bufferView" : 3,
            "componentType" : 5123,
            "count" : 50694,
            "type" : "SCALAR"
        },
        {
            "bufferView" : 4,
            "componentType" : 5126,
            "count" : 37464,
            "max" : [
                0.27914899587631226,
                0.27915000915527344,
                -2.4371728897094727
            ],
            "min" : [
                -0.27914899587631226,
                -0.27914899587631226,
                -2.796787977218628
            ],
            "type" : "VEC3"
        },
        {
            "bufferView" : 5,
            "componentType" : 5126,
            "count" : 37464,
            "type" : "VEC3"
        },
        {
            "bufferView" : 6,
            "componentType" : 5126,
            "count" : 37464,
            "type" : "VEC2"
        },
        {
            "bufferView" : 7,
            "componentType" : 5123,
            "count" : 48540,
            "type" : "SCALAR"
        }
    ],
    "bufferViews" : [
        {
            "buffer" : 0,
            "byteLength" : 536988,
            "byteOffset" : 0
        },
        {
            "buffer" : 0,
            "byteLength" : 536988,
            "byteOffset" : 536988
        },
        {
            "buffer" : 0,
            "byteLength" : 357992,
            "byteOffset" : 1073976
        },
        {
            "buffer" : 0,
            "byteLength" : 101388,
            "byteOffset" : 1431968
        },
        {
            "buffer" : 0,
            "byteLength" : 449568,
            "byteOffset" : 1533356
        },
        {
            "buffer" : 0,
            "byteLength" : 449568,
            "byteOffset" : 1982924
        },
        {
            "buffer" : 0,
            "byteLength" : 299712,
            "byteOffset" : 2432492
        },
        {
            "buffer" : 0,
            "byteLength" : 97080,
            "byteOffset" : 2732204
        }
    ],
    "buffers" : [
        {
            "byteLength" : 2829284,
            "uri" : "data:application/octet-stream;base64,"
        }
    ]
}
