{
    "asset" : {
        "generator" : "Khronos glTF Blender I/O v1.0.5",
        "version" : "2.0"
    },
    "scene" : 0,
    "scenes" : [
        {
            "name" : "Scene",
            "nodes" : [
                0,
                3,
                4
            ]
        }
    ],
    "nodes" : [
        {
            "name" : "Yup2Zup.001",
            "rotation" : [
                1,
                0,
                0,
                -1.3435884227419592e-07
            ]
        },
        {
            "name" : "Waterbottle.obj.cleaner.materialmerger.gles"
        },
        {
            "children" : [
                1
            ],
            "name" : "RootNode (model correction matrix)"
        },
        {
            "children" : [
                2
            ],
            "name" : "RootNode (gltf orientation matrix)"
        },
        {
            "mesh" : 0,
            "name" : "Bottle",
            "rotation" : [
                1,
                0,
                0,
                -1.3435885648505064e-07
            ],
            "translation" : [
                0,
                -1.371787190437317,
                0
            ]
        }
    ],
    "materials" : [
        {
            "alphaMode" : "BLEND",
            "doubleSided" : true,
            "name" : "Vetro",
            "pbrMetallicRoughness" : {
                "baseColorFactor" : [
                    0.4845164716243744,
                    0.5952929258346558,
                    0.8000000715255737,
                    0.45714282989501953
                ],
                "metallicFactor" : 0,
                "roughnessFactor" : 0.5
            }
        },
        {
            "doubleSided" : true,
            "name" : "Tappo_A",
            "pbrMetallicRoughness" : {
                "baseColorFactor" : [
                    0,
                    0.0013150634476915002,
                    0.17335502803325653,
                    1
                ],
                "metallicFactor" : 0,
                "roughnessFactor" : 0.8945907354354858
            }
        }
    ],
    "meshes" : [
        {
            "name" : "Bottle",
            "primitives" : [
                {
                    "attributes" : {
                        "POSITION" : 0,
                        "NORMAL" : 1,
                        "TEXCOORD_0" : 2
                    },
                    "indices" : 3,
                    "material" : 0
                },
                {
                    "attributes" : {
                        "POSITION" : 4,
                        "NORMAL" : 5,
                        "TEXCOORD_0" : 6
                    },
                    "indices" : 7,
                    "material" : 1
                }
            ]
        }
    ],
    "accessors" : [
        {
            "bufferView" : 0,
            "componentType" : 5126,
            "count" : 46443,
            "max" : [
                0.6882860064506531,
                -1.9999999949504854e-06,
                0.6886370182037354
            ],
            "min" : [
                -0.6882860064506531,
                -2.7479090690612793,
                -0.6882359981536865
            ],
            "type" : "VEC3"
        },
        {
            "bufferView" : 1,
            "componentType" : 5126,
            "count" : 46443,
            "type" : "VEC3"
        },
        {
            "bufferView" : 2,
            "componentType" : 5126,
            "count" : 46443,
            "type" : "VEC2"
        },
        {
            "bufferView" : 3,
            "componentType" : 5123,
            "count" : 50694,
            "type" : "SCALAR"
        },
        {
            "bufferView" : 4,
            "componentType" : 5126,
            "count" : 44433,
            "max" : [
                0.27914899587631226,
                -2.4371728897094727,
                0.27914899587631226
            ],
            "min" : [
                -0.27914899587631226,
                -2.796787977218628,
                -0.27915000915527344
            ],
            "type" : "VEC3"
        },
        {
            "bufferView" : 5,
            "componentType" : 5126,
            "count" : 44433,
            "type" : "VEC3"
        },
        {
            "bufferView" : 6,
            "componentType" : 5126,
            "count" : 44433,
            "type" : "VEC2"
        },
        {
            "bufferView" : 7,
            "componentType" : 5123,
            "count" : 48540,
            "type" : "SCALAR"
        }
    ],
    "bufferViews" : [
        {
            "buffer" : 0,
            "byteLength" : 557316,
            "byteOffset" : 0
        },
        {
            "buffer" : 0,
            "byteLength" : 557316,
            "byteOffset" : 557316
        },
        {
            "buffer" : 0,
            "byteLength" : 371544,
            "byteOffset" : 1114632
        },
        {
            "buffer" : 0,
            "byteLength" : 101388,
            "byteOffset" : 1486176
        },
        {
            "buffer" : 0,
            "byteLength" : 533196,
            "byteOffset" : 1587564
        },
        {
            "buffer" : 0,
            "byteLength" : 533196,
            "byteOffset" : 2120760
        },
        {
            "buffer" : 0,
            "byteLength" : 355464,
            "byteOffset" : 2653956
        },
        {
            "buffer" : 0,
            "byteLength" : 97080,
            "byteOffset" : 3009420
        }
    ],
    "buffers" : [
        {
            "byteLength" : 3106500,
            "uri" : "data:application/octet-stream;base64,"
        }
    ]
}
