{
  "accessors": [
    {
      "bufferView": 1,
      "componentType": 5126,
      "count": 84,
      "max": [
        0.25019899010658264,
        1,
        1
      ],
      "min": [
        -0.83467727899551392,
        -1,
        -1
      ],
      "type": "VEC3"
    },
    {
      "bufferView": 1,
      "byteOffset": 1008,
      "componentType": 5126,
      "count": 84,
      "max": [
        0.0001525950210634619,
        1,
        0.99057549238204956
      ],
      "min": [
        -0.99054062366485596,
        -1,
        -0.9905707836151123
      ],
      "type": "VEC3"
    },
    {
      "bufferView": 0,
      "componentType": 5125,
      "count": 384,
      "max": [
        83
      ],
      "min": [
        0
      ],
      "type": "SCALAR"
    },
    {
      "bufferView": 1,
      "byteOffset": 2016,
      "componentType": 5126,
      "count": 90,
      "max": [
        0.7598717212677002,
        1,
        0.11223360151052475
      ],
      "min": [
        -0.76215338706970215,
        -1,
        -0.13819360733032227
      ],
      "type": "VEC3"
    },
    {
      "bufferView": 1,
      "byteOffset": 3096,
      "componentType": 5126,
      "count": 90,
      "max": [
        0.98764234781265259,
        1,
        0.08905445784330368
      ],
      "min": [
        -0.98764300346374512,
        -1,
        -0.08905445784330368
      ],
      "type": "VEC3"
    },
    {
      "bufferView": 0,
      "byteOffset": 1536,
      "componentType": 5125,
      "count": 432,
      "max": [
        89
      ],
      "min": [
        0
      ],
      "type": "SCALAR"
    },
    {
      "bufferView": 1,
      "byteOffset": 4176,
      "componentType": 5126,
      "count": 84,
      "max": [
        0.83467721939086914,
        1,
        1
      ],
      "min": [
        0.2501986026763916,
        -1,
        -1
      ],
      "type": "VEC3"
    },
    {
      "bufferView": 1,
      "byteOffset": 5184,
      "componentType": 5126,
      "count": 84,
      "max": [
        0.99054062366485596,
        1,
        0.99057549238204956
      ],
      "min": [
        -0.00015259398787748069,
        -1,
        -0.9905707836151123
      ],
      "type": "VEC3"
    },
    {
      "bufferView": 0,
      "byteOffset": 3264,
      "componentType": 5125,
      "count": 384,
      "max": [
        83
      ],
      "min": [
        0
      ],
      "type": "SCALAR"
    }
  ],
  "asset": {
    "extras": {
      "author": "Merlin Waldhör (https://sketchfab.com/mewaldhoer723)",
      "license": "CC-BY-4.0 (http://creativecommons.org/licenses/by/4.0/)",
      "source": "https://sketchfab.com/models/c8dc3b18bc0540a0b86e14a75054ce52",
      "title": "Simple Rubber"
    },
    "generator": "Sketchfab-3.27.1",
    "version": "2.0"
  },
  "bufferViews": [
    {
      "buffer": 0,
      "byteLength": 4800,
      "byteOffset": 0,
      "name": "floatBufferViews",
      "target": 34963
    },
    {
      "buffer": 0,
      "byteLength": 6192,
      "byteOffset": 4800,
      "byteStride": 12,
      "name": "floatBufferViews",
      "target": 34962
    }
  ],
  "buffers": [
    {
      "byteLength": 10992,
      "uri": "rubber.bin"
    }
  ],
  "materials": [
    {
      "doubleSided": true,
      "emissiveFactor": [
        0,
        0,
        0
      ],
      "name": "Rubber_002",
      "pbrMetallicRoughness": {
        "baseColorFactor": [
          0.80000000000000004,
          0.053944899999999997,
          0,
          1
        ],
        "metallicFactor": 0,
        "roughnessFactor": 0.59999999999999998
      }
    },
    {
      "doubleSided": true,
      "emissiveFactor": [
        0,
        0,
        0
      ],
      "name": "Rubber_001",
      "pbrMetallicRoughness": {
        "baseColorFactor": [
          0.80000000000000004,
          0.80000000000000004,
          0.80000000000000004,
          1
        ],
        "metallicFactor": 0,
        "roughnessFactor": 0.59999999999999998
      }
    },
    {
      "doubleSided": true,
      "emissiveFactor": [
        0,
        0,
        0
      ],
      "name": "Rubber",
      "pbrMetallicRoughness": {
        "baseColorFactor": [
          0.00019989399999999999,
          0.20028699999999999,
          0.64000000000000001,
          1
        ],
        "metallicFactor": 0,
        "roughnessFactor": 0.59999999999999998
      }
    }
  ],
  "meshes": [
    {
      "name": "Rubber_002-material",
      "primitives": [
        {
          "attributes": {
            "NORMAL": 1,
            "POSITION": 0
          },
          "indices": 2,
          "material": 0,
          "mode": 4
        }
      ]
    },
    {
      "name": "Rubber_001-material",
      "primitives": [
        {
          "attributes": {
            "NORMAL": 4,
            "POSITION": 3
          },
          "indices": 5,
          "material": 1,
          "mode": 4
        }
      ]
    },
    {
      "name": "Rubber-material",
      "primitives": [
        {
          "attributes": {
            "NORMAL": 7,
            "POSITION": 6
          },
          "indices": 8,
          "material": 2,
          "mode": 4
        }
      ]
    }
  ],
  "nodes": [
    {
      "children": [
        1
      ],
      "name": "RootNode (gltf orientation matrix)",
      "rotation": [
        -0.70710678118654746,
        -0,
        -0,
        0.70710678118654757
      ]
    },
    {
      "children": [
        2
      ],
      "name": "RootNode (model correction matrix)"
    },
    {
      "children": [
        3
      ],
      "name": "Collada visual scene group"
    },
    {
      "children": [
        4,
        5,
        6
      ],
      "matrix": [
        1.610033,
        0,
        0,
        0,
        0,
        0.45106669999999999,
        0,
        0,
        0,
        0,
        0.19312399999999999,
        0,
        0,
        0,
        0,
        1
      ],
      "name": "Rubber"
    },
    {
      "mesh": 0,
      "name": "Rubber_002-material"
    },
    {
      "mesh": 1,
      "name": "Rubber_001-material"
    },
    {
      "mesh": 2,
      "name": "Rubber-material"
    }
  ],
  "scene": 0,
  "scenes": [
    {
      "name": "OSG_Scene",
      "nodes": [
        0
      ]
    }
  ]
}

