{
    "asset" : {
        "generator" : "Khronos glTF Blender I/O v0.9.36",
        "version" : "2.0"
    },
    "scene" : 0,
    "scenes" : [
        {
            "name" : "Scene",
            "nodes" : [
                0
            ]
        }
    ],
    "nodes" : [
        {
            "mesh" : 0,
            "name" : "polymsh1",
            "rotation" : [
                0.8153455257415771,
                0.005703583359718323,
                -0.00803327839821577,
                0.578890860080719
            ],
            "scale" : [
                0.21253791451454163,
                0.21253791451454163,
                0.21253791451454163
            ],
            "translation" : [
                -1.8447182178497314,
                0,
                -0.24689403176307678
            ]
        }
    ],
    "materials" : [
        {
            "doubleSided" : true,
            "name" : "scene_material",
            "pbrMetallicRoughness" : {
                "baseColorFactor" : [
                    0.800000011920929,
                    0.800000011920929,
                    0.800000011920929,
                    1
                ],
                "metallicFactor" : 0,
                "roughnessFactor" : 0.5
            }
        }
    ],
    "meshes" : [
        {
            "name" : "polymsh1",
            "primitives" : [
                {
                    "attributes" : {
                        "POSITION" : 0,
                        "NORMAL" : 1
                    },
                    "indices" : 2,
                    "material" : 0
                }
            ]
        }
    ],
    "accessors" : [
        {
            "bufferView" : 0,
            "componentType" : 5126,
            "count" : 10282,
            "max" : [
                12.637163162231445,
                4,
                0.18292899429798126
            ],
            "min" : [
                4.637163162231445,
                -4,
                -2.5557210445404053
            ],
            "type" : "VEC3"
        },
        {
            "bufferView" : 1,
            "componentType" : 5126,
            "count" : 10282,
            "type" : "VEC3"
        },
        {
            "bufferView" : 2,
            "componentType" : 5123,
            "count" : 48384,
            "type" : "SCALAR"
        }
    ],
    "bufferViews" : [
        {
            "buffer" : 0,
            "byteLength" : 123384,
            "byteOffset" : 0
        },
        {
            "buffer" : 0,
            "byteLength" : 123384,
            "byteOffset" : 123384
        },
        {
            "buffer" : 0,
            "byteLength" : 96768,
            "byteOffset" : 246768
        }
    ],
    "buffers" : [
        {
            "byteLength" : 343536,
            "uri" : "data:application/octet-stream;base64,"
        }
    ]
}
