{
    "asset" : {
        "generator" : "Khronos glTF Blender I/O v0.9.36",
        "version" : "2.0"
    },
    "scene" : 0,
    "scenes" : [
        {
            "name" : "Scene",
            "nodes" : [
                0
            ]
        }
    ],
    "nodes" : [
        {
            "mesh" : 0,
            "name" : "polymsh1",
            "rotation" : [
                0.7071068286895752,
                0,
                0,
                0.7071067094802856
            ],
            "scale" : [
                0.30821508169174194,
                0.30821508169174194,
                0.30821508169174194
            ],
            "translation" : [
                -2.537179946899414,
                0,
                -0.2468940019607544
            ]
        }
    ],
    "materials" : [
        {
            "doubleSided" : true,
            "name" : "scene_material",
            "pbrMetallicRoughness" : {
                "baseColorFactor" : [
                    0.800000011920929,
                    0.800000011920929,
                    0.800000011920929,
                    1
                ],
                "metallicFactor" : 0,
                "roughnessFactor" : 0.5
            }
        }
    ],
    "meshes" : [
        {
            "name" : "polymsh1",
            "primitives" : [
                {
                    "attributes" : {
                        "POSITION" : 0,
                        "NORMAL" : 1
                    },
                    "indices" : 2,
                    "material" : 0
                }
            ]
        }
    ],
    "accessors" : [
        {
            "bufferView" : 0,
            "componentType" : 5126,
            "count" : 8442,
            "max" : [
                12.637163162231445,
                2.5557210445404053,
                4
            ],
            "min" : [
                4.637163162231445,
                -0.18292899429798126,
                -4
            ],
            "type" : "VEC3"
        },
        {
            "bufferView" : 1,
            "componentType" : 5126,
            "count" : 8442,
            "type" : "VEC3"
        },
        {
            "bufferView" : 2,
            "componentType" : 5123,
            "count" : 48384,
            "type" : "SCALAR"
        }
    ],
    "bufferViews" : [
        {
            "buffer" : 0,
            "byteLength" : 101304,
            "byteOffset" : 0
        },
        {
            "buffer" : 0,
            "byteLength" : 101304,
            "byteOffset" : 101304
        },
        {
            "buffer" : 0,
            "byteLength" : 96768,
            "byteOffset" : 202608
        }
    ],
    "buffers" : [
        {
            "byteLength" : 299376,
            "uri" : "data:application/octet-stream;base64,"
        }
    ]
}
