{
    "asset" : {
        "generator" : "Khronos glTF Blender I/O v1.0.5",
        "version" : "2.0"
    },
    "scene" : 0,
    "scenes" : [
        {
            "name" : "Scene",
            "nodes" : [
                0
            ]
        }
    ],
    "nodes" : [
        {
            "mesh" : 0,
            "name" : "Spray",
            "rotation" : [
                0.7071068286895752,
                0,
                0,
                0.7071067094802856
            ],
            "scale" : [
                0.6300840377807617,
                0.6300840377807617,
                0.6300840377807617
            ]
        }
    ],
    "materials" : [
        {
            "doubleSided" : true,
            "name" : "None",
            "pbrMetallicRoughness" : {
                "baseColorTexture" : {
                    "index" : 0,
                    "texCoord" : 0
                },
                "metallicFactor" : 0,
                "roughnessFactor" : 0.5
            }
        }
    ],
    "meshes" : [
        {
            "name" : "Spray",
            "primitives" : [
                {
                    "attributes" : {
                        "POSITION" : 0,
                        "NORMAL" : 1,
                        "TEXCOORD_0" : 2
                    },
                    "indices" : 3,
                    "material" : 0
                }
            ]
        }
    ],
    "textures" : [
        {
            "source" : 0
        }
    ],
    "images" : [
        {
            "bufferView" : 4,
            "mimeType" : "image/jpeg",
            "name" : "Spray_None_color"
        }
    ],
    "accessors" : [
        {
            "bufferView" : 0,
            "componentType" : 5126,
            "count" : 6138,
            "max" : [
                2.6140708923339844,
                1.5358920097351074,
                0.019812000915408134
            ],
            "min" : [
                -0.8976470232009888,
                -0.6114199757575989,
                -2.9813549518585205
            ],
            "type" : "VEC3"
        },
        {
            "bufferView" : 1,
            "componentType" : 5126,
            "count" : 6138,
            "type" : "VEC3"
        },
        {
            "bufferView" : 2,
            "componentType" : 5126,
            "count" : 6138,
            "type" : "VEC2"
        },
        {
            "bufferView" : 3,
            "componentType" : 5123,
            "count" : 22656,
            "type" : "SCALAR"
        }
    ],
    "bufferViews" : [
        {
            "buffer" : 0,
            "byteLength" : 73656,
            "byteOffset" : 0
        },
        {
            "buffer" : 0,
            "byteLength" : 73656,
            "byteOffset" : 73656
        },
        {
            "buffer" : 0,
            "byteLength" : 49104,
            "byteOffset" : 147312
        },
        {
            "buffer" : 0,
            "byteLength" : 45312,
            "byteOffset" : 196416
        },
        {
            "buffer" : 0,
            "byteLength" : 272728,
            "byteOffset" : 241728
        }
    ],
    "buffers" : [
        {
            "byteLength" : 514456,
            "uri" : "data:application/octet-stream;base64,"
        }
    ]
}
