{
    "asset" : {
        "generator" : "Khronos glTF Blender I/O v1.0.5",
        "version" : "2.0"
    },
    "scene" : 0,
    "scenes" : [
        {
            "name" : "Scene",
            "nodes" : [
                0,
                1,
                2,
                3,
                4,
                5,
                6,
                7,
                8,
                9,
                10,
                11,
                12,
                13,
                14
            ]
        }
    ],
    "nodes" : [
        {
            "mesh" : 0,
            "name" : "BezierCurve",
            "rotation" : [
                0.30876004695892334,
                0,
                0,
                0.9511399865150452
            ],
            "scale" : [
                0.6575319766998291,
                0.657532274723053,
                0.657532274723053
            ],
            "translation" : [
                -0.12495420128107071,
                0.040475472807884216,
                -0.3086000084877014
            ]
        },
        {
            "name" : "kreis",
            "rotation" : [
                -0.4542313814163208,
                0,
                0,
                0.89088374376297
            ],
            "scale" : [
                0.010356523096561432,
                0.010356529615819454,
                0.010356529615819454
            ],
            "translation" : [
                0.3735584616661072,
                -0.7515155673027039,
                0.7827222347259521
            ]
        },
        {
            "mesh" : 1,
            "name" : "BezierCurve.001",
            "rotation" : [
                0.30876004695892334,
                0,
                0,
                0.9511399865150452
            ],
            "scale" : [
                0.6575319766998291,
                0.657532274723053,
                0.657532274723053
            ],
            "translation" : [
                -0.12495420128107071,
                0.1788109540939331,
                -0.792967677116394
            ]
        },
        {
            "name" : "kreis.001",
            "rotation" : [
                -0.4542313814163208,
                0,
                0,
                0.89088374376297
            ],
            "scale" : [
                0.010356523096561432,
                0.010356529615819454,
                0.010356529615819454
            ],
            "translation" : [
                0.3735584616661072,
                -0.509965717792511,
                0.4498792290687561
            ]
        },
        {
            "mesh" : 2,
            "name" : "BezierCurve.002",
            "rotation" : [
                0.30876004695892334,
                0,
                0,
                0.9511399865150452
            ],
            "scale" : [
                0.6575319766998291,
                0.657532274723053,
                0.657532274723053
            ],
            "translation" : [
                -0.12495420128107071,
                -0.3189976215362549,
                0.047268085181713104
            ]
        },
        {
            "name" : "kreis.002",
            "rotation" : [
                -0.4542313814163208,
                0,
                0,
                0.89088374376297
            ],
            "scale" : [
                0.010356523096561432,
                0.010356529615819454,
                0.010356529615819454
            ],
            "translation" : [
                0.3735584616661072,
                -1.0446913242340088,
                1.1867032051086426
            ]
        },
        {
            "mesh" : 3,
            "name" : "BezierCurve.003",
            "rotation" : [
                0.30876004695892334,
                0,
                0,
                0.9511399865150452
            ],
            "scale" : [
                0.6575319766998291,
                0.657532274723053,
                0.657532274723053
            ],
            "translation" : [
                -0.12495420128107071,
                -0.29953455924987793,
                0.3311542868614197
            ]
        },
        {
            "name" : "kreis.003",
            "rotation" : [
                -0.4542313814163208,
                0,
                0,
                0.89088374376297
            ],
            "scale" : [
                0.010356523096561432,
                0.010356529615819454,
                0.010356529615819454
            ],
            "translation" : [
                0.3735584616661072,
                -1.172925591468811,
                1.3634032011032104
            ]
        },
        {
            "mesh" : 4,
            "name" : "BezierCurve.004",
            "rotation" : [
                0.30876004695892334,
                0,
                0,
                0.9511399865150452
            ],
            "scale" : [
                0.6575319766998291,
                0.657532274723053,
                0.657532274723053
            ],
            "translation" : [
                -0.12495420128107071,
                -0.6096288561820984,
                0.4758903980255127
            ]
        },
        {
            "name" : "kreis.004",
            "rotation" : [
                -0.4542313814163208,
                0,
                0,
                0.89088374376297
            ],
            "scale" : [
                0.010356523096561432,
                0.010356529615819454,
                0.010356529615819454
            ],
            "translation" : [
                0.3735584616661072,
                -1.3487027883529663,
                1.6056150197982788
            ]
        },
        {
            "mesh" : 5,
            "name" : "BezierCurve.009",
            "rotation" : [
                0.30876004695892334,
                0,
                0,
                0.9511399865150452
            ],
            "scale" : [
                0.6575319766998291,
                0.657532274723053,
                0.657532274723053
            ],
            "translation" : [
                -0.12495420128107071,
                0.6626293063163757,
                -0.4552536606788635
            ]
        },
        {
            "mesh" : 6,
            "name" : "BezierCurve.008",
            "rotation" : [
                0.30876004695892334,
                0,
                0,
                0.9511399865150452
            ],
            "scale" : [
                0.6575319766998291,
                0.657532274723053,
                0.657532274723053
            ],
            "translation" : [
                -0.12495420128107071,
                -0.11765769869089127,
                0.6199418902397156
            ]
        },
        {
            "mesh" : 7,
            "name" : "BezierCurve.007",
            "rotation" : [
                0.30876004695892334,
                0,
                0,
                0.9511399865150452
            ],
            "scale" : [
                0.6575319766998291,
                0.657532274723053,
                0.657532274723053
            ],
            "translation" : [
                -0.12495420128107071,
                0.2260451465845108,
                0.6087477207183838
            ]
        },
        {
            "mesh" : 8,
            "name" : "BezierCurve.006",
            "rotation" : [
                0.30876004695892334,
                0,
                0,
                0.9511399865150452
            ],
            "scale" : [
                0.6575319766998291,
                0.657532274723053,
                0.657532274723053
            ],
            "translation" : [
                -0.12495420128107071,
                0.269231915473938,
                0.20341500639915466
            ]
        },
        {
            "mesh" : 9,
            "name" : "BezierCurve.005",
            "rotation" : [
                0.30876004695892334,
                0,
                0,
                0.9511399865150452
            ],
            "scale" : [
                0.6575319766998291,
                0.657532274723053,
                0.657532274723053
            ],
            "translation" : [
                -0.12495420128107071,
                0.5878373384475708,
                -0.08508194983005524
            ]
        }
    ],
    "materials" : [
        {
            "doubleSided" : true,
            "name" : "Material.043",
            "pbrMetallicRoughness" : {
                "baseColorFactor" : [
                    0.4487428069114685,
                    0.44824305176734924,
                    0.41823309659957886,
                    1
                ],
                "metallicFactor" : 0,
                "roughnessFactor" : 0.5
            }
        },
        {
            "doubleSided" : true,
            "name" : "Material.044",
            "pbrMetallicRoughness" : {
                "baseColorFactor" : [
                    0.4487428069114685,
                    0.44824305176734924,
                    0.41823309659957886,
                    1
                ],
                "metallicFactor" : 0,
                "roughnessFactor" : 0.5
            }
        }
    ],
    "meshes" : [
        {
            "name" : "BezierCurve.040",
            "primitives" : [
                {
                    "attributes" : {
                        "POSITION" : 0,
                        "NORMAL" : 1
                    },
                    "indices" : 2,
                    "material" : 0
                }
            ]
        },
        {
            "name" : "BezierCurve.041",
            "primitives" : [
                {
                    "attributes" : {
                        "POSITION" : 3,
                        "NORMAL" : 4
                    },
                    "indices" : 5,
                    "material" : 0
                }
            ]
        },
        {
            "name" : "BezierCurve.042",
            "primitives" : [
                {
                    "attributes" : {
                        "POSITION" : 6,
                        "NORMAL" : 7
                    },
                    "indices" : 8,
                    "material" : 0
                }
            ]
        },
        {
            "name" : "BezierCurve.043",
            "primitives" : [
                {
                    "attributes" : {
                        "POSITION" : 9,
                        "NORMAL" : 10
                    },
                    "indices" : 11,
                    "material" : 0
                }
            ]
        },
        {
            "name" : "BezierCurve.044",
            "primitives" : [
                {
                    "attributes" : {
                        "POSITION" : 12,
                        "NORMAL" : 13
                    },
                    "indices" : 14,
                    "material" : 0
                }
            ]
        },
        {
            "name" : "BezierCurve.045",
            "primitives" : [
                {
                    "attributes" : {
                        "POSITION" : 15,
                        "NORMAL" : 16
                    },
                    "indices" : 2,
                    "material" : 1
                }
            ]
        },
        {
            "name" : "BezierCurve.046",
            "primitives" : [
                {
                    "attributes" : {
                        "POSITION" : 17,
                        "NORMAL" : 18
                    },
                    "indices" : 5,
                    "material" : 1
                }
            ]
        },
        {
            "name" : "BezierCurve.047",
            "primitives" : [
                {
                    "attributes" : {
                        "POSITION" : 19,
                        "NORMAL" : 20
                    },
                    "indices" : 8,
                    "material" : 1
                }
            ]
        },
        {
            "name" : "BezierCurve.048",
            "primitives" : [
                {
                    "attributes" : {
                        "POSITION" : 21,
                        "NORMAL" : 22
                    },
                    "indices" : 11,
                    "material" : 1
                }
            ]
        },
        {
            "name" : "BezierCurve.049",
            "primitives" : [
                {
                    "attributes" : {
                        "POSITION" : 23,
                        "NORMAL" : 24
                    },
                    "indices" : 14,
                    "material" : 1
                }
            ]
        }
    ],
    "accessors" : [
        {
            "bufferView" : 0,
            "componentType" : 5126,
            "count" : 2050,
            "max" : [
                2.767132043838501,
                0.11817707121372223,
                0.14130085706710815
            ],
            "min" : [
                -3.00874662399292,
                -0.08774465322494507,
                -0.14349569380283356
            ],
            "type" : "VEC3"
        },
        {
            "bufferView" : 1,
            "componentType" : 5126,
            "count" : 2050,
            "type" : "VEC3"
        },
        {
            "bufferView" : 2,
            "componentType" : 5123,
            "count" : 10644,
            "type" : "SCALAR"
        },
        {
            "bufferView" : 3,
            "componentType" : 5126,
            "count" : 2052,
            "max" : [
                3.1876838207244873,
                0.2749546468257904,
                0.34576261043548584
            ],
            "min" : [
                -2.6633059978485107,
                -0.09452128410339355,
                -0.16077256202697754
            ],
            "type" : "VEC3"
        },
        {
            "bufferView" : 4,
            "componentType" : 5126,
            "count" : 2052,
            "type" : "VEC3"
        },
        {
            "bufferView" : 5,
            "componentType" : 5123,
            "count" : 10644,
            "type" : "SCALAR"
        },
        {
            "bufferView" : 6,
            "componentType" : 5126,
            "count" : 2052,
            "max" : [
                2.775144338607788,
                0.3207232356071472,
                0.04377374053001404
            ],
            "min" : [
                -2.2296221256256104,
                -0.24434609711170197,
                -0.30914658308029175
            ],
            "type" : "VEC3"
        },
        {
            "bufferView" : 7,
            "componentType" : 5126,
            "count" : 2052,
            "type" : "VEC3"
        },
        {
            "bufferView" : 8,
            "componentType" : 5123,
            "count" : 10644,
            "type" : "SCALAR"
        },
        {
            "bufferView" : 9,
            "componentType" : 5126,
            "count" : 2052,
            "max" : [
                3.0139501094818115,
                0.3372381627559662,
                0.41279059648513794
            ],
            "min" : [
                -2.662349224090576,
                -0.08703749626874924,
                -0.3060416579246521
            ],
            "type" : "VEC3"
        },
        {
            "bufferView" : 10,
            "componentType" : 5126,
            "count" : 2052,
            "type" : "VEC3"
        },
        {
            "bufferView" : 11,
            "componentType" : 5123,
            "count" : 10644,
            "type" : "SCALAR"
        },
        {
            "bufferView" : 12,
            "componentType" : 5126,
            "count" : 2052,
            "max" : [
                3.562098503112793,
                0.4525538384914398,
                0.5201744437217712
            ],
            "min" : [
                -2.662349224090576,
                -0.08703054487705231,
                -0.24312976002693176
            ],
            "type" : "VEC3"
        },
        {
            "bufferView" : 13,
            "componentType" : 5126,
            "count" : 2052,
            "type" : "VEC3"
        },
        {
            "bufferView" : 14,
            "componentType" : 5123,
            "count" : 10644,
            "type" : "SCALAR"
        },
        {
            "bufferView" : 15,
            "componentType" : 5126,
            "count" : 2050,
            "max" : [
                2.767132043838501,
                0.11817707121372223,
                0.14130085706710815
            ],
            "min" : [
                -3.00874662399292,
                -0.08774465322494507,
                -0.14349569380283356
            ],
            "type" : "VEC3"
        },
        {
            "bufferView" : 16,
            "componentType" : 5126,
            "count" : 2050,
            "type" : "VEC3"
        },
        {
            "bufferView" : 17,
            "componentType" : 5126,
            "count" : 2052,
            "max" : [
                3.1876838207244873,
                0.2749546468257904,
                0.34576261043548584
            ],
            "min" : [
                -2.6633059978485107,
                -0.09452128410339355,
                -0.16077256202697754
            ],
            "type" : "VEC3"
        },
        {
            "bufferView" : 18,
            "componentType" : 5126,
            "count" : 2052,
            "type" : "VEC3"
        },
        {
            "bufferView" : 19,
            "componentType" : 5126,
            "count" : 2052,
            "max" : [
                2.775144338607788,
                0.3207232356071472,
                0.04377374053001404
            ],
            "min" : [
                -2.2296221256256104,
                -0.24434609711170197,
                -0.30914658308029175
            ],
            "type" : "VEC3"
        },
        {
            "bufferView" : 20,
            "componentType" : 5126,
            "count" : 2052,
            "type" : "VEC3"
        },
        {
            "bufferView" : 21,
            "componentType" : 5126,
            "count" : 2052,
            "max" : [
                3.0139501094818115,
                0.3372381627559662,
                0.41279059648513794
            ],
            "min" : [
                -2.662349224090576,
                -0.08703749626874924,
                -0.3060416579246521
            ],
            "type" : "VEC3"
        },
        {
            "bufferView" : 22,
            "componentType" : 5126,
            "count" : 2052,
            "type" : "VEC3"
        },
        {
            "bufferView" : 23,
            "componentType" : 5126,
            "count" : 2052,
            "max" : [
                3.562098503112793,
                0.4525538384914398,
                0.5201744437217712
            ],
            "min" : [
                -2.662349224090576,
                -0.08703054487705231,
                -0.24312976002693176
            ],
            "type" : "VEC3"
        },
        {
            "bufferView" : 24,
            "componentType" : 5126,
            "count" : 2052,
            "type" : "VEC3"
        }
    ],
    "bufferViews" : [
        {
            "buffer" : 0,
            "byteLength" : 24600,
            "byteOffset" : 0
        },
        {
            "buffer" : 0,
            "byteLength" : 24600,
            "byteOffset" : 24600
        },
        {
            "buffer" : 0,
            "byteLength" : 21288,
            "byteOffset" : 49200
        },
        {
            "buffer" : 0,
            "byteLength" : 24624,
            "byteOffset" : 70488
        },
        {
            "buffer" : 0,
            "byteLength" : 24624,
            "byteOffset" : 95112
        },
        {
            "buffer" : 0,
            "byteLength" : 21288,
            "byteOffset" : 119736
        },
        {
            "buffer" : 0,
            "byteLength" : 24624,
            "byteOffset" : 141024
        },
        {
            "buffer" : 0,
            "byteLength" : 24624,
            "byteOffset" : 165648
        },
        {
            "buffer" : 0,
            "byteLength" : 21288,
            "byteOffset" : 190272
        },
        {
            "buffer" : 0,
            "byteLength" : 24624,
            "byteOffset" : 211560
        },
        {
            "buffer" : 0,
            "byteLength" : 24624,
            "byteOffset" : 236184
        },
        {
            "buffer" : 0,
            "byteLength" : 21288,
            "byteOffset" : 260808
        },
        {
            "buffer" : 0,
            "byteLength" : 24624,
            "byteOffset" : 282096
        },
        {
            "buffer" : 0,
            "byteLength" : 24624,
            "byteOffset" : 306720
        },
        {
            "buffer" : 0,
            "byteLength" : 21288,
            "byteOffset" : 331344
        },
        {
            "buffer" : 0,
            "byteLength" : 24600,
            "byteOffset" : 352632
        },
        {
            "buffer" : 0,
            "byteLength" : 24600,
            "byteOffset" : 377232
        },
        {
            "buffer" : 0,
            "byteLength" : 24624,
            "byteOffset" : 401832
        },
        {
            "buffer" : 0,
            "byteLength" : 24624,
            "byteOffset" : 426456
        },
        {
            "buffer" : 0,
            "byteLength" : 24624,
            "byteOffset" : 451080
        },
        {
            "buffer" : 0,
            "byteLength" : 24624,
            "byteOffset" : 475704
        },
        {
            "buffer" : 0,
            "byteLength" : 24624,
            "byteOffset" : 500328
        },
        {
            "buffer" : 0,
            "byteLength" : 24624,
            "byteOffset" : 524952
        },
        {
            "buffer" : 0,
            "byteLength" : 24624,
            "byteOffset" : 549576
        },
        {
            "buffer" : 0,
            "byteLength" : 24624,
            "byteOffset" : 574200
        }
    ],
    "buffers" : [
        {
            "byteLength" : 598824,
            "uri" : "data:application/octet-stream;base64,"
        }
    ]
}
